<?xml version="1.0" standalone="no"?>
<!DOCTYPE svg PUBLIC "-//W3C//DTD SVG 20010904//EN"
 "http://www.w3.org/TR/2001/REC-SVG-20010904/DTD/svg10.dtd">
<svg version="1.0" xmlns="http://www.w3.org/2000/svg"
 width="260.000000pt" height="260.000000pt" viewBox="0 0 260.000000 260.000000"
 preserveAspectRatio="xMidYMid meet">
<metadata>
Created by potrace 1.11, written by Peter Selinger 2001-2013
</metadata>
<g transform="translate(0.000000,260.000000) scale(0.100000,-0.100000)"
fill="#000000" stroke="none">
<path d="M0 1300 l0 -1300 1300 0 1300 0 0 1300 0 1300 -1300 0 -1300 0 0
-1300z m560 225 c0 -33 -2 -35 -35 -35 l-35 0 0 -195 0 -195 85 0 85 0 0 80 0
80 35 0 35 0 0 -115 0 -115 -195 0 -195 0 0 35 c0 33 2 35 35 35 l35 0 0 195
0 195 -35 0 c-33 0 -35 2 -35 35 l0 35 110 0 110 0 0 -35z m620 0 c0 -33 -2
-35 -35 -35 l-35 0 0 -195 0 -195 29 0 c15 0 56 -3 90 -7 l63 -6 -4 87 -3 86
33 0 32 0 0 -115 0 -115 -195 0 -195 0 0 35 c0 33 2 35 35 35 l35 0 0 195 0
195 -35 0 c-33 0 -35 2 -35 35 l0 35 110 0 110 0 0 -35z m660 -142 c36 -95 68
-175 72 -178 3 -3 36 76 74 175 l69 180 88 0 87 0 0 -30 c0 -27 -3 -30 -30
-30 l-30 0 2 -202 3 -203 33 -3 c28 -3 32 -7 32 -33 l0 -29 -100 0 -100 0 0
30 c0 29 7 34 43 31 16 -2 17 13 17 201 l-1 203 -88 -230 c-49 -126 -94 -231
-99 -233 -6 -2 -27 41 -48 95 -20 54 -61 159 -90 233 l-53 135 0 -197 -1 -198
30 0 c28 0 30 -3 30 -35 l0 -35 -96 0 -95 0 3 33 c3 28 7 32 36 35 l32 3 -2
197 -3 197 -32 3 c-29 3 -33 7 -33 33 l0 30 92 -3 92 -3 66 -172z"/>
</g>
</svg>
